<svg width="40" height="40" viewBox="0 0 40 40" fill="none" xmlns="http://www.w3.org/2000/svg">
<rect x="0.487805" y="0.487805" width="39.0244" height="39.0244" fill="#EEEEEE"/>
<path d="M22.7996 11.7074L23.222 11.4635L22.7996 10.7318L22.3771 11.4635L22.7996 11.7074ZM29.237 22.8573V23.3451H30.0819L29.6594 22.6134L29.237 22.8573ZM16.3622 22.8573L15.9397 22.6134L15.5173 23.3451H16.3622V22.8573ZM22.3771 11.9513L28.8145 23.1012L29.6594 22.6134L23.222 11.4635L22.3771 11.9513ZM19.621 18.1884L23.222 11.9513L22.3771 11.4635L18.7761 17.7006L19.621 18.1884ZM16.3066 17.6245C17.2736 17.6245 18.1762 17.8939 18.9452 18.3613L19.452 17.5277C18.5346 16.97 17.4574 16.6489 16.3066 16.6489V17.6245ZM11.2195 22.7117C11.2195 19.9021 13.4971 17.6245 16.3066 17.6245V16.6489C12.9583 16.6489 10.2439 19.3633 10.2439 22.7117H11.2195ZM16.3066 27.7988C13.4971 27.7988 11.2195 25.5212 11.2195 22.7117H10.2439C10.2439 26.06 12.9583 28.7744 16.3066 28.7744V27.7988ZM21.3921 22.8448C21.3216 25.5927 19.0717 27.7988 16.3066 27.7988V28.7744C19.6021 28.7744 22.2834 26.1452 22.3674 22.8698L21.3921 22.8448ZM29.237 22.3695H21.8797V23.3451H29.237V22.3695ZM21.8797 22.3695H16.3622V23.3451H21.8797V22.3695ZM16.7846 23.1012L19.621 18.1884L18.7761 17.7006L15.9397 22.6134L16.7846 23.1012ZM18.9452 18.3613C20.4143 19.2545 21.3938 20.8689 21.3938 22.7117H22.3694C22.3694 20.5143 21.2 18.5904 19.452 17.5277L18.9452 18.3613ZM21.3938 22.7117C21.3938 22.7562 21.3932 22.8006 21.3921 22.8448L22.3674 22.8698C22.3687 22.8172 22.3694 22.7645 22.3694 22.7117H21.3938Z" fill="#AAAAAA"/>
<rect x="0.487805" y="0.487805" width="39.0244" height="39.0244" stroke="#AAAAAA" stroke-width="0.97561"/>
</svg>
